<svg id="visual" viewBox="0 0 1800 200" width="1800" height="200" xmlns="http://www.w3.org/2000/svg" xmlns:xlink="http://www.w3.org/1999/xlink" version="1.1"><path d="M0 31L129 31L129 87L257 87L257 69L386 69L386 77L514 77L514 21L643 21L643 75L771 75L771 103L900 103L900 81L1029 81L1029 49L1157 49L1157 33L1286 33L1286 123L1414 123L1414 43L1543 43L1543 95L1671 95L1671 13L1800 13L1800 93L1800 0L1800 0L1671 0L1671 0L1543 0L1543 0L1414 0L1414 0L1286 0L1286 0L1157 0L1157 0L1029 0L1029 0L900 0L900 0L771 0L771 0L643 0L643 0L514 0L514 0L386 0L386 0L257 0L257 0L129 0L129 0L0 0Z" fill="#0e181b"></path><path d="M0 83L129 83L129 101L257 101L257 73L386 73L386 79L514 79L514 51L643 51L643 127L771 127L771 135L900 135L900 103L1029 103L1029 59L1157 59L1157 87L1286 87L1286 129L1414 129L1414 59L1543 59L1543 101L1671 101L1671 49L1800 49L1800 97L1800 91L1800 11L1671 11L1671 93L1543 93L1543 41L1414 41L1414 121L1286 121L1286 31L1157 31L1157 47L1029 47L1029 79L900 79L900 101L771 101L771 73L643 73L643 19L514 19L514 75L386 75L386 67L257 67L257 85L129 85L129 29L0 29Z" fill="#0d1618"></path><path d="M0 91L129 91L129 135L257 135L257 115L386 115L386 105L514 105L514 81L643 81L643 139L771 139L771 159L900 159L900 127L1029 127L1029 103L1157 103L1157 103L1286 103L1286 163L1414 163L1414 63L1543 63L1543 105L1671 105L1671 77L1800 77L1800 127L1800 95L1800 47L1671 47L1671 99L1543 99L1543 57L1414 57L1414 127L1286 127L1286 85L1157 85L1157 57L1029 57L1029 101L900 101L900 133L771 133L771 125L643 125L643 49L514 49L514 77L386 77L386 71L257 71L257 99L129 99L129 81L0 81Z" fill="#0b1315"></path><path d="M0 139L129 139L129 167L257 167L257 147L386 147L386 129L514 129L514 161L643 161L643 187L771 187L771 191L900 191L900 161L1029 161L1029 185L1157 185L1157 165L1286 165L1286 173L1414 173L1414 157L1543 157L1543 165L1671 165L1671 161L1800 161L1800 149L1800 125L1800 75L1671 75L1671 103L1543 103L1543 61L1414 61L1414 161L1286 161L1286 101L1157 101L1157 101L1029 101L1029 125L900 125L900 157L771 157L771 137L643 137L643 79L514 79L514 103L386 103L386 113L257 113L257 133L129 133L129 89L0 89Z" fill="#091011"></path><path d="M0 201L129 201L129 201L257 201L257 201L386 201L386 201L514 201L514 201L643 201L643 201L771 201L771 201L900 201L900 201L1029 201L1029 201L1157 201L1157 201L1286 201L1286 201L1414 201L1414 201L1543 201L1543 201L1671 201L1671 201L1800 201L1800 201L1800 147L1800 159L1671 159L1671 163L1543 163L1543 155L1414 155L1414 171L1286 171L1286 163L1157 163L1157 183L1029 183L1029 159L900 159L900 189L771 189L771 185L643 185L643 159L514 159L514 127L386 127L386 145L257 145L257 165L129 165L129 137L0 137Z" fill="#070c0d"></path></svg>