<svg id="visual" viewBox="0 0 1800 200" width="1800" height="200" xmlns="http://www.w3.org/2000/svg" xmlns:xlink="http://www.w3.org/1999/xlink" version="1.1"><path d="M0 19L90 19L90 3L180 3L180 19L270 19L270 21L360 21L360 17L450 17L450 19L540 19L540 25L630 25L630 15L720 15L720 11L810 11L810 17L900 17L900 11L990 11L990 15L1080 15L1080 19L1170 19L1170 15L1260 15L1260 0L1350 0L1350 9L1440 9L1440 15L1530 15L1530 9L1620 9L1620 5L1710 5L1710 5L1800 5L1800 11L1800 0L1800 0L1710 0L1710 0L1620 0L1620 0L1530 0L1530 0L1440 0L1440 0L1350 0L1350 0L1260 0L1260 0L1170 0L1170 0L1080 0L1080 0L990 0L990 0L900 0L900 0L810 0L810 0L720 0L720 0L630 0L630 0L540 0L540 0L450 0L450 0L360 0L360 0L270 0L270 0L180 0L180 0L90 0L90 0L0 0Z" fill="#070c0d"></path><path d="M0 39L90 39L90 17L180 17L180 67L270 67L270 113L360 113L360 37L450 37L450 99L540 99L540 33L630 33L630 119L720 119L720 95L810 95L810 29L900 29L900 67L990 67L990 47L1080 47L1080 85L1170 85L1170 49L1260 49L1260 39L1350 39L1350 53L1440 53L1440 43L1530 43L1530 79L1620 79L1620 41L1710 41L1710 43L1800 43L1800 79L1800 9L1800 3L1710 3L1710 3L1620 3L1620 7L1530 7L1530 13L1440 13L1440 7L1350 7L1350 0L1260 0L1260 13L1170 13L1170 17L1080 17L1080 13L990 13L990 9L900 9L900 15L810 15L810 9L720 9L720 13L630 13L630 23L540 23L540 17L450 17L450 15L360 15L360 19L270 19L270 17L180 17L180 1L90 1L90 17L0 17Z" fill="#080e0f"></path><path d="M0 57L90 57L90 63L180 63L180 85L270 85L270 119L360 119L360 39L450 39L450 105L540 105L540 55L630 55L630 125L720 125L720 101L810 101L810 63L900 63L900 115L990 115L990 59L1080 59L1080 135L1170 135L1170 59L1260 59L1260 91L1350 91L1350 99L1440 99L1440 71L1530 71L1530 109L1620 109L1620 53L1710 53L1710 75L1800 75L1800 129L1800 77L1800 41L1710 41L1710 39L1620 39L1620 77L1530 77L1530 41L1440 41L1440 51L1350 51L1350 37L1260 37L1260 47L1170 47L1170 83L1080 83L1080 45L990 45L990 65L900 65L900 27L810 27L810 93L720 93L720 117L630 117L630 31L540 31L540 97L450 97L450 35L360 35L360 111L270 111L270 65L180 65L180 15L90 15L90 37L0 37Z" fill="#091011"></path><path d="M0 85L90 85L90 71L180 71L180 117L270 117L270 127L360 127L360 69L450 69L450 113L540 113L540 103L630 103L630 139L720 139L720 115L810 115L810 73L900 73L900 123L990 123L990 87L1080 87L1080 159L1170 159L1170 91L1260 91L1260 103L1350 103L1350 131L1440 131L1440 81L1530 81L1530 125L1620 125L1620 67L1710 67L1710 111L1800 111L1800 153L1800 127L1800 73L1710 73L1710 51L1620 51L1620 107L1530 107L1530 69L1440 69L1440 97L1350 97L1350 89L1260 89L1260 57L1170 57L1170 133L1080 133L1080 57L990 57L990 113L900 113L900 61L810 61L810 99L720 99L720 123L630 123L630 53L540 53L540 103L450 103L450 37L360 37L360 117L270 117L270 83L180 83L180 61L90 61L90 55L0 55Z" fill="#0a1113"></path><path d="M0 97L90 97L90 81L180 81L180 121L270 121L270 147L360 147L360 71L450 71L450 133L540 133L540 107L630 107L630 155L720 155L720 131L810 131L810 89L900 89L900 133L990 133L990 105L1080 105L1080 165L1170 165L1170 91L1260 91L1260 115L1350 115L1350 147L1440 147L1440 101L1530 101L1530 143L1620 143L1620 87L1710 87L1710 129L1800 129L1800 155L1800 151L1800 109L1710 109L1710 65L1620 65L1620 123L1530 123L1530 79L1440 79L1440 129L1350 129L1350 101L1260 101L1260 89L1170 89L1170 157L1080 157L1080 85L990 85L990 121L900 121L900 71L810 71L810 113L720 113L720 137L630 137L630 101L540 101L540 111L450 111L450 67L360 67L360 125L270 125L270 115L180 115L180 69L90 69L90 83L0 83Z" fill="#0b1315"></path><path d="M0 113L90 113L90 105L180 105L180 141L270 141L270 147L360 147L360 95L450 95L450 141L540 141L540 113L630 113L630 177L720 177L720 149L810 149L810 95L900 95L900 135L990 135L990 119L1080 119L1080 171L1170 171L1170 95L1260 95L1260 135L1350 135L1350 153L1440 153L1440 111L1530 111L1530 165L1620 165L1620 111L1710 111L1710 149L1800 149L1800 179L1800 153L1800 127L1710 127L1710 85L1620 85L1620 141L1530 141L1530 99L1440 99L1440 145L1350 145L1350 113L1260 113L1260 89L1170 89L1170 163L1080 163L1080 103L990 103L990 131L900 131L900 87L810 87L810 129L720 129L720 153L630 153L630 105L540 105L540 131L450 131L450 69L360 69L360 145L270 145L270 119L180 119L180 79L90 79L90 95L0 95Z" fill="#0c1417"></path><path d="M0 151L90 151L90 185L180 185L180 167L270 167L270 171L360 171L360 155L450 155L450 167L540 167L540 195L630 195L630 185L720 185L720 153L810 153L810 163L900 163L900 167L990 167L990 177L1080 177L1080 181L1170 181L1170 167L1260 167L1260 165L1350 165L1350 171L1440 171L1440 175L1530 175L1530 179L1620 179L1620 151L1710 151L1710 165L1800 165L1800 181L1800 177L1800 147L1710 147L1710 109L1620 109L1620 163L1530 163L1530 109L1440 109L1440 151L1350 151L1350 133L1260 133L1260 93L1170 93L1170 169L1080 169L1080 117L990 117L990 133L900 133L900 93L810 93L810 147L720 147L720 175L630 175L630 111L540 111L540 139L450 139L450 93L360 93L360 145L270 145L270 139L180 139L180 103L90 103L90 111L0 111Z" fill="#0d1618"></path><path d="M0 177L90 177L90 201L180 201L180 193L270 193L270 179L360 179L360 179L450 179L450 193L540 193L540 197L630 197L630 189L720 189L720 179L810 179L810 185L900 185L900 177L990 177L990 179L1080 179L1080 201L1170 201L1170 197L1260 197L1260 181L1350 181L1350 177L1440 177L1440 183L1530 183L1530 179L1620 179L1620 177L1710 177L1710 181L1800 181L1800 191L1800 179L1800 163L1710 163L1710 149L1620 149L1620 177L1530 177L1530 173L1440 173L1440 169L1350 169L1350 163L1260 163L1260 165L1170 165L1170 179L1080 179L1080 175L990 175L990 165L900 165L900 161L810 161L810 151L720 151L720 183L630 183L630 193L540 193L540 165L450 165L450 153L360 153L360 169L270 169L270 165L180 165L180 183L90 183L90 149L0 149Z" fill="#0d171a"></path><path d="M0 201L90 201L90 201L180 201L180 201L270 201L270 201L360 201L360 201L450 201L450 201L540 201L540 201L630 201L630 201L720 201L720 201L810 201L810 201L900 201L900 201L990 201L990 201L1080 201L1080 201L1170 201L1170 201L1260 201L1260 201L1350 201L1350 201L1440 201L1440 201L1530 201L1530 201L1620 201L1620 201L1710 201L1710 201L1800 201L1800 201L1800 189L1800 179L1710 179L1710 175L1620 175L1620 177L1530 177L1530 181L1440 181L1440 175L1350 175L1350 179L1260 179L1260 195L1170 195L1170 199L1080 199L1080 177L990 177L990 175L900 175L900 183L810 183L810 177L720 177L720 187L630 187L630 195L540 195L540 191L450 191L450 177L360 177L360 177L270 177L270 191L180 191L180 199L90 199L90 175L0 175Z" fill="#0e181b"></path></svg>