<svg id="visual" viewBox="0 0 1800 200" width="1800" height="200" xmlns="http://www.w3.org/2000/svg" xmlns:xlink="http://www.w3.org/1999/xlink" version="1.1"><path d="M0 15L90 15L90 15L180 15L180 13L270 13L270 11L360 11L360 21L450 21L450 19L540 19L540 9L630 9L630 3L720 3L720 23L810 23L810 25L900 25L900 13L990 13L990 15L1080 15L1080 15L1170 15L1170 21L1260 21L1260 15L1350 15L1350 5L1440 5L1440 23L1530 23L1530 5L1620 5L1620 7L1710 7L1710 7L1800 7L1800 23L1800 0L1800 0L1710 0L1710 0L1620 0L1620 0L1530 0L1530 0L1440 0L1440 0L1350 0L1350 0L1260 0L1260 0L1170 0L1170 0L1080 0L1080 0L990 0L990 0L900 0L900 0L810 0L810 0L720 0L720 0L630 0L630 0L540 0L540 0L450 0L450 0L360 0L360 0L270 0L270 0L180 0L180 0L90 0L90 0L0 0Z" fill="#0e181b"></path><path d="M0 57L90 57L90 59L180 59L180 35L270 35L270 21L360 21L360 31L450 31L450 57L540 57L540 43L630 43L630 43L720 43L720 59L810 59L810 45L900 45L900 63L990 63L990 61L1080 61L1080 53L1170 53L1170 37L1260 37L1260 27L1350 27L1350 25L1440 25L1440 65L1530 65L1530 13L1620 13L1620 51L1710 51L1710 13L1800 13L1800 39L1800 21L1800 5L1710 5L1710 5L1620 5L1620 3L1530 3L1530 21L1440 21L1440 3L1350 3L1350 13L1260 13L1260 19L1170 19L1170 13L1080 13L1080 13L990 13L990 11L900 11L900 23L810 23L810 21L720 21L720 1L630 1L630 7L540 7L540 17L450 17L450 19L360 19L360 9L270 9L270 11L180 11L180 13L90 13L90 13L0 13Z" fill="#0d171a"></path><path d="M0 73L90 73L90 77L180 77L180 63L270 63L270 35L360 35L360 51L450 51L450 85L540 85L540 57L630 57L630 47L720 47L720 87L810 87L810 71L900 71L900 89L990 89L990 63L1080 63L1080 53L1170 53L1170 41L1260 41L1260 41L1350 41L1350 49L1440 49L1440 69L1530 69L1530 41L1620 41L1620 59L1710 59L1710 31L1800 31L1800 43L1800 37L1800 11L1710 11L1710 49L1620 49L1620 11L1530 11L1530 63L1440 63L1440 23L1350 23L1350 25L1260 25L1260 35L1170 35L1170 51L1080 51L1080 59L990 59L990 61L900 61L900 43L810 43L810 57L720 57L720 41L630 41L630 41L540 41L540 55L450 55L450 29L360 29L360 19L270 19L270 33L180 33L180 57L90 57L90 55L0 55Z" fill="#0d1618"></path><path d="M0 95L90 95L90 79L180 79L180 81L270 81L270 51L360 51L360 59L450 59L450 103L540 103L540 79L630 79L630 63L720 63L720 101L810 101L810 93L900 93L900 89L990 89L990 67L1080 67L1080 77L1170 77L1170 63L1260 63L1260 43L1350 43L1350 49L1440 49L1440 77L1530 77L1530 47L1620 47L1620 61L1710 61L1710 31L1800 31L1800 51L1800 41L1800 29L1710 29L1710 57L1620 57L1620 39L1530 39L1530 67L1440 67L1440 47L1350 47L1350 39L1260 39L1260 39L1170 39L1170 51L1080 51L1080 61L990 61L990 87L900 87L900 69L810 69L810 85L720 85L720 45L630 45L630 55L540 55L540 83L450 83L450 49L360 49L360 33L270 33L270 61L180 61L180 75L90 75L90 71L0 71Z" fill="#0c1417"></path><path d="M0 115L90 115L90 83L180 83L180 83L270 83L270 67L360 67L360 69L450 69L450 127L540 127L540 89L630 89L630 89L720 89L720 113L810 113L810 101L900 101L900 103L990 103L990 69L1080 69L1080 91L1170 91L1170 79L1260 79L1260 61L1350 61L1350 59L1440 59L1440 105L1530 105L1530 63L1620 63L1620 91L1710 91L1710 49L1800 49L1800 55L1800 49L1800 29L1710 29L1710 59L1620 59L1620 45L1530 45L1530 75L1440 75L1440 47L1350 47L1350 41L1260 41L1260 61L1170 61L1170 75L1080 75L1080 65L990 65L990 87L900 87L900 91L810 91L810 99L720 99L720 61L630 61L630 77L540 77L540 101L450 101L450 57L360 57L360 49L270 49L270 79L180 79L180 77L90 77L90 93L0 93Z" fill="#0b1315"></path><path d="M0 127L90 127L90 101L180 101L180 91L270 91L270 155L360 155L360 91L450 91L450 133L540 133L540 107L630 107L630 161L720 161L720 133L810 133L810 133L900 133L900 137L990 137L990 91L1080 91L1080 117L1170 117L1170 145L1260 145L1260 163L1350 163L1350 85L1440 85L1440 167L1530 167L1530 81L1620 81L1620 147L1710 147L1710 105L1800 105L1800 121L1800 53L1800 47L1710 47L1710 89L1620 89L1620 61L1530 61L1530 103L1440 103L1440 57L1350 57L1350 59L1260 59L1260 77L1170 77L1170 89L1080 89L1080 67L990 67L990 101L900 101L900 99L810 99L810 111L720 111L720 87L630 87L630 87L540 87L540 125L450 125L450 67L360 67L360 65L270 65L270 81L180 81L180 81L90 81L90 113L0 113Z" fill="#0a1113"></path><path d="M0 145L90 145L90 113L180 113L180 111L270 111L270 161L360 161L360 109L450 109L450 133L540 133L540 123L630 123L630 181L720 181L720 137L810 137L810 135L900 135L900 149L990 149L990 97L1080 97L1080 125L1170 125L1170 155L1260 155L1260 175L1350 175L1350 97L1440 97L1440 167L1530 167L1530 99L1620 99L1620 155L1710 155L1710 125L1800 125L1800 139L1800 119L1800 103L1710 103L1710 145L1620 145L1620 79L1530 79L1530 165L1440 165L1440 83L1350 83L1350 161L1260 161L1260 143L1170 143L1170 115L1080 115L1080 89L990 89L990 135L900 135L900 131L810 131L810 131L720 131L720 159L630 159L630 105L540 105L540 131L450 131L450 89L360 89L360 153L270 153L270 89L180 89L180 99L90 99L90 125L0 125Z" fill="#091011"></path><path d="M0 185L90 185L90 159L180 159L180 171L270 171L270 187L360 187L360 183L450 183L450 177L540 177L540 173L630 173L630 195L720 195L720 183L810 183L810 167L900 167L900 175L990 175L990 199L1080 199L1080 161L1170 161L1170 185L1260 185L1260 193L1350 193L1350 177L1440 177L1440 175L1530 175L1530 181L1620 181L1620 167L1710 167L1710 195L1800 195L1800 163L1800 137L1800 123L1710 123L1710 153L1620 153L1620 97L1530 97L1530 165L1440 165L1440 95L1350 95L1350 173L1260 173L1260 153L1170 153L1170 123L1080 123L1080 95L990 95L990 147L900 147L900 133L810 133L810 135L720 135L720 179L630 179L630 121L540 121L540 131L450 131L450 107L360 107L360 159L270 159L270 109L180 109L180 111L90 111L90 143L0 143Z" fill="#080e0f"></path><path d="M0 201L90 201L90 201L180 201L180 201L270 201L270 201L360 201L360 201L450 201L450 201L540 201L540 201L630 201L630 201L720 201L720 201L810 201L810 201L900 201L900 201L990 201L990 201L1080 201L1080 201L1170 201L1170 201L1260 201L1260 201L1350 201L1350 201L1440 201L1440 201L1530 201L1530 201L1620 201L1620 201L1710 201L1710 201L1800 201L1800 201L1800 161L1800 193L1710 193L1710 165L1620 165L1620 179L1530 179L1530 173L1440 173L1440 175L1350 175L1350 191L1260 191L1260 183L1170 183L1170 159L1080 159L1080 197L990 197L990 173L900 173L900 165L810 165L810 181L720 181L720 193L630 193L630 171L540 171L540 175L450 175L450 181L360 181L360 185L270 185L270 169L180 169L180 157L90 157L90 183L0 183Z" fill="#070c0d"></path></svg>