<svg id="visual" viewBox="0 0 1800 200" width="1800" height="200" xmlns="http://www.w3.org/2000/svg" xmlns:xlink="http://www.w3.org/1999/xlink" version="1.1"><path d="M0 3L90 3L90 39L180 39L180 41L270 41L270 3L360 3L360 37L450 37L450 5L540 5L540 43L630 43L630 5L720 5L720 9L810 9L810 3L900 3L900 31L990 31L990 3L1080 3L1080 13L1170 13L1170 7L1260 7L1260 19L1350 19L1350 37L1440 37L1440 5L1530 5L1530 5L1620 5L1620 17L1710 17L1710 41L1800 41L1800 31L1800 0L1800 0L1710 0L1710 0L1620 0L1620 0L1530 0L1530 0L1440 0L1440 0L1350 0L1350 0L1260 0L1260 0L1170 0L1170 0L1080 0L1080 0L990 0L990 0L900 0L900 0L810 0L810 0L720 0L720 0L630 0L630 0L540 0L540 0L450 0L450 0L360 0L360 0L270 0L270 0L180 0L180 0L90 0L90 0L0 0Z" fill="#070c0d"></path><path d="M0 23L90 23L90 65L180 65L180 49L270 49L270 13L360 13L360 65L450 65L450 75L540 75L540 77L630 77L630 63L720 63L720 47L810 47L810 83L900 83L900 87L990 87L990 59L1080 59L1080 131L1170 131L1170 71L1260 71L1260 49L1350 49L1350 67L1440 67L1440 65L1530 65L1530 37L1620 37L1620 77L1710 77L1710 69L1800 69L1800 109L1800 29L1800 39L1710 39L1710 15L1620 15L1620 3L1530 3L1530 3L1440 3L1440 35L1350 35L1350 17L1260 17L1260 5L1170 5L1170 11L1080 11L1080 1L990 1L990 29L900 29L900 1L810 1L810 7L720 7L720 3L630 3L630 41L540 41L540 3L450 3L450 35L360 35L360 1L270 1L270 39L180 39L180 37L90 37L90 1L0 1Z" fill="#080e0f"></path><path d="M0 25L90 25L90 71L180 71L180 55L270 55L270 23L360 23L360 103L450 103L450 77L540 77L540 79L630 79L630 83L720 83L720 75L810 75L810 91L900 91L900 91L990 91L990 69L1080 69L1080 159L1170 159L1170 81L1260 81L1260 79L1350 79L1350 71L1440 71L1440 85L1530 85L1530 53L1620 53L1620 81L1710 81L1710 105L1800 105L1800 113L1800 107L1800 67L1710 67L1710 75L1620 75L1620 35L1530 35L1530 63L1440 63L1440 65L1350 65L1350 47L1260 47L1260 69L1170 69L1170 129L1080 129L1080 57L990 57L990 85L900 85L900 81L810 81L810 45L720 45L720 61L630 61L630 75L540 75L540 73L450 73L450 63L360 63L360 11L270 11L270 47L180 47L180 63L90 63L90 21L0 21Z" fill="#091011"></path><path d="M0 73L90 73L90 111L180 111L180 71L270 71L270 81L360 81L360 127L450 127L450 111L540 111L540 87L630 87L630 97L720 97L720 105L810 105L810 121L900 121L900 117L990 117L990 81L1080 81L1080 163L1170 163L1170 137L1260 137L1260 119L1350 119L1350 105L1440 105L1440 131L1530 131L1530 109L1620 109L1620 129L1710 129L1710 145L1800 145L1800 141L1800 111L1800 103L1710 103L1710 79L1620 79L1620 51L1530 51L1530 83L1440 83L1440 69L1350 69L1350 77L1260 77L1260 79L1170 79L1170 157L1080 157L1080 67L990 67L990 89L900 89L900 89L810 89L810 73L720 73L720 81L630 81L630 77L540 77L540 75L450 75L450 101L360 101L360 21L270 21L270 53L180 53L180 69L90 69L90 23L0 23Z" fill="#0a1113"></path><path d="M0 85L90 85L90 131L180 131L180 77L270 77L270 103L360 103L360 141L450 141L450 135L540 135L540 95L630 95L630 127L720 127L720 109L810 109L810 125L900 125L900 129L990 129L990 109L1080 109L1080 165L1170 165L1170 141L1260 141L1260 139L1350 139L1350 129L1440 129L1440 137L1530 137L1530 135L1620 135L1620 157L1710 157L1710 149L1800 149L1800 155L1800 139L1800 143L1710 143L1710 127L1620 127L1620 107L1530 107L1530 129L1440 129L1440 103L1350 103L1350 117L1260 117L1260 135L1170 135L1170 161L1080 161L1080 79L990 79L990 115L900 115L900 119L810 119L810 103L720 103L720 95L630 95L630 85L540 85L540 109L450 109L450 125L360 125L360 79L270 79L270 69L180 69L180 109L90 109L90 71L0 71Z" fill="#0b1315"></path><path d="M0 93L90 93L90 131L180 131L180 83L270 83L270 121L360 121L360 151L450 151L450 137L540 137L540 115L630 115L630 129L720 129L720 119L810 119L810 135L900 135L900 135L990 135L990 129L1080 129L1080 167L1170 167L1170 161L1260 161L1260 145L1350 145L1350 139L1440 139L1440 147L1530 147L1530 139L1620 139L1620 181L1710 181L1710 149L1800 149L1800 159L1800 153L1800 147L1710 147L1710 155L1620 155L1620 133L1530 133L1530 135L1440 135L1440 127L1350 127L1350 137L1260 137L1260 139L1170 139L1170 163L1080 163L1080 107L990 107L990 127L900 127L900 123L810 123L810 107L720 107L720 125L630 125L630 93L540 93L540 133L450 133L450 139L360 139L360 101L270 101L270 75L180 75L180 129L90 129L90 83L0 83Z" fill="#0c1417"></path><path d="M0 161L90 161L90 167L180 167L180 163L270 163L270 181L360 181L360 201L450 201L450 179L540 179L540 183L630 183L630 177L720 177L720 175L810 175L810 191L900 191L900 171L990 171L990 183L1080 183L1080 191L1170 191L1170 179L1260 179L1260 167L1350 167L1350 173L1440 173L1440 187L1530 187L1530 197L1620 197L1620 185L1710 185L1710 177L1800 177L1800 181L1800 157L1800 147L1710 147L1710 179L1620 179L1620 137L1530 137L1530 145L1440 145L1440 137L1350 137L1350 143L1260 143L1260 159L1170 159L1170 165L1080 165L1080 127L990 127L990 133L900 133L900 133L810 133L810 117L720 117L720 127L630 127L630 113L540 113L540 135L450 135L450 149L360 149L360 119L270 119L270 81L180 81L180 129L90 129L90 91L0 91Z" fill="#0d1618"></path><path d="M0 181L90 181L90 181L180 181L180 179L270 179L270 181L360 181L360 201L450 201L450 183L540 183L540 199L630 199L630 195L720 195L720 185L810 185L810 197L900 197L900 177L990 177L990 199L1080 199L1080 197L1170 197L1170 191L1260 191L1260 179L1350 179L1350 175L1440 175L1440 195L1530 195L1530 199L1620 199L1620 187L1710 187L1710 191L1800 191L1800 201L1800 179L1800 175L1710 175L1710 183L1620 183L1620 195L1530 195L1530 185L1440 185L1440 171L1350 171L1350 165L1260 165L1260 177L1170 177L1170 189L1080 189L1080 181L990 181L990 169L900 169L900 189L810 189L810 173L720 173L720 175L630 175L630 181L540 181L540 177L450 177L450 199L360 199L360 179L270 179L270 161L180 161L180 165L90 165L90 159L0 159Z" fill="#0d171a"></path><path d="M0 201L90 201L90 201L180 201L180 201L270 201L270 201L360 201L360 201L450 201L450 201L540 201L540 201L630 201L630 201L720 201L720 201L810 201L810 201L900 201L900 201L990 201L990 201L1080 201L1080 201L1170 201L1170 201L1260 201L1260 201L1350 201L1350 201L1440 201L1440 201L1530 201L1530 201L1620 201L1620 201L1710 201L1710 201L1800 201L1800 201L1800 199L1800 189L1710 189L1710 185L1620 185L1620 197L1530 197L1530 193L1440 193L1440 173L1350 173L1350 177L1260 177L1260 189L1170 189L1170 195L1080 195L1080 197L990 197L990 175L900 175L900 195L810 195L810 183L720 183L720 193L630 193L630 197L540 197L540 181L450 181L450 199L360 199L360 179L270 179L270 177L180 177L180 179L90 179L90 179L0 179Z" fill="#0e181b"></path></svg>