<svg id="visual" viewBox="0 0 1800 200" width="1800" height="200" xmlns="http://www.w3.org/2000/svg" xmlns:xlink="http://www.w3.org/1999/xlink" version="1.1"><path d="M0 19L129 19L129 57L257 57L257 55L386 55L386 39L514 39L514 47L643 47L643 77L771 77L771 21L900 21L900 13L1029 13L1029 43L1157 43L1157 37L1286 37L1286 55L1414 55L1414 17L1543 17L1543 23L1671 23L1671 73L1800 73L1800 31L1800 0L1800 0L1671 0L1671 0L1543 0L1543 0L1414 0L1414 0L1286 0L1286 0L1157 0L1157 0L1029 0L1029 0L900 0L900 0L771 0L771 0L643 0L643 0L514 0L514 0L386 0L386 0L257 0L257 0L129 0L129 0L0 0Z" fill="#070c0d"></path><path d="M0 71L129 71L129 123L257 123L257 125L386 125L386 65L514 65L514 89L643 89L643 121L771 121L771 79L900 79L900 57L1029 57L1029 91L1157 91L1157 143L1286 143L1286 75L1414 75L1414 59L1543 59L1543 143L1671 143L1671 83L1800 83L1800 131L1800 29L1800 71L1671 71L1671 21L1543 21L1543 15L1414 15L1414 53L1286 53L1286 35L1157 35L1157 41L1029 41L1029 11L900 11L900 19L771 19L771 75L643 75L643 45L514 45L514 37L386 37L386 53L257 53L257 55L129 55L129 17L0 17Z" fill="#091011"></path><path d="M0 91L129 91L129 145L257 145L257 179L386 179L386 113L514 113L514 105L643 105L643 131L771 131L771 109L900 109L900 69L1029 69L1029 115L1157 115L1157 175L1286 175L1286 113L1414 113L1414 95L1543 95L1543 159L1671 159L1671 85L1800 85L1800 139L1800 129L1800 81L1671 81L1671 141L1543 141L1543 57L1414 57L1414 73L1286 73L1286 141L1157 141L1157 89L1029 89L1029 55L900 55L900 77L771 77L771 119L643 119L643 87L514 87L514 63L386 63L386 123L257 123L257 121L129 121L129 69L0 69Z" fill="#0b1315"></path><path d="M0 159L129 159L129 169L257 169L257 191L386 191L386 187L514 187L514 177L643 177L643 179L771 179L771 165L900 165L900 193L1029 193L1029 181L1157 181L1157 183L1286 183L1286 199L1414 199L1414 193L1543 193L1543 197L1671 197L1671 173L1800 173L1800 157L1800 137L1800 83L1671 83L1671 157L1543 157L1543 93L1414 93L1414 111L1286 111L1286 173L1157 173L1157 113L1029 113L1029 67L900 67L900 107L771 107L771 129L643 129L643 103L514 103L514 111L386 111L386 177L257 177L257 143L129 143L129 89L0 89Z" fill="#0d1618"></path><path d="M0 201L129 201L129 201L257 201L257 201L386 201L386 201L514 201L514 201L643 201L643 201L771 201L771 201L900 201L900 201L1029 201L1029 201L1157 201L1157 201L1286 201L1286 201L1414 201L1414 201L1543 201L1543 201L1671 201L1671 201L1800 201L1800 201L1800 155L1800 171L1671 171L1671 195L1543 195L1543 191L1414 191L1414 197L1286 197L1286 181L1157 181L1157 179L1029 179L1029 191L900 191L900 163L771 163L771 177L643 177L643 175L514 175L514 185L386 185L386 189L257 189L257 167L129 167L129 157L0 157Z" fill="#0e181b"></path></svg>