<svg id="visual" viewBox="0 0 1800 200" width="1800" height="200" xmlns="http://www.w3.org/2000/svg" xmlns:xlink="http://www.w3.org/1999/xlink" version="1.1"><path d="M0 9L90 9L90 5L180 5L180 13L270 13L270 11L360 11L360 11L450 11L450 7L540 7L540 25L630 25L630 21L720 21L720 5L810 5L810 5L900 5L900 23L990 23L990 31L1080 31L1080 23L1170 23L1170 5L1260 5L1260 19L1350 19L1350 23L1440 23L1440 3L1530 3L1530 7L1620 7L1620 11L1710 11L1710 23L1800 23L1800 27L1800 0L1800 0L1710 0L1710 0L1620 0L1620 0L1530 0L1530 0L1440 0L1440 0L1350 0L1350 0L1260 0L1260 0L1170 0L1170 0L1080 0L1080 0L990 0L990 0L900 0L900 0L810 0L810 0L720 0L720 0L630 0L630 0L540 0L540 0L450 0L450 0L360 0L360 0L270 0L270 0L180 0L180 0L90 0L90 0L0 0Z" fill="#0e181b"></path><path d="M0 9L90 9L90 13L180 13L180 21L270 21L270 19L360 19L360 21L450 21L450 25L540 25L540 43L630 43L630 23L720 23L720 25L810 25L810 23L900 23L900 39L990 39L990 31L1080 31L1080 33L1170 33L1170 23L1260 23L1260 39L1350 39L1350 35L1440 35L1440 25L1530 25L1530 11L1620 11L1620 19L1710 19L1710 43L1800 43L1800 35L1800 25L1800 21L1710 21L1710 9L1620 9L1620 5L1530 5L1530 1L1440 1L1440 21L1350 21L1350 17L1260 17L1260 3L1170 3L1170 21L1080 21L1080 29L990 29L990 21L900 21L900 3L810 3L810 3L720 3L720 19L630 19L630 23L540 23L540 5L450 5L450 9L360 9L360 9L270 9L270 11L180 11L180 3L90 3L90 7L0 7Z" fill="#0d171a"></path><path d="M0 45L90 45L90 19L180 19L180 87L270 87L270 89L360 89L360 49L450 49L450 83L540 83L540 65L630 65L630 83L720 83L720 67L810 67L810 69L900 69L900 87L990 87L990 71L1080 71L1080 91L1170 91L1170 89L1260 89L1260 115L1350 115L1350 69L1440 69L1440 71L1530 71L1530 19L1620 19L1620 73L1710 73L1710 83L1800 83L1800 119L1800 33L1800 41L1710 41L1710 17L1620 17L1620 9L1530 9L1530 23L1440 23L1440 33L1350 33L1350 37L1260 37L1260 21L1170 21L1170 31L1080 31L1080 29L990 29L990 37L900 37L900 21L810 21L810 23L720 23L720 21L630 21L630 41L540 41L540 23L450 23L450 19L360 19L360 17L270 17L270 19L180 19L180 11L90 11L90 7L0 7Z" fill="#0d1618"></path><path d="M0 49L90 49L90 51L180 51L180 93L270 93L270 113L360 113L360 91L450 91L450 123L540 123L540 93L630 93L630 107L720 107L720 69L810 69L810 119L900 119L900 103L990 103L990 107L1080 107L1080 137L1170 137L1170 119L1260 119L1260 117L1350 117L1350 113L1440 113L1440 121L1530 121L1530 53L1620 53L1620 125L1710 125L1710 91L1800 91L1800 145L1800 117L1800 81L1710 81L1710 71L1620 71L1620 17L1530 17L1530 69L1440 69L1440 67L1350 67L1350 113L1260 113L1260 87L1170 87L1170 89L1080 89L1080 69L990 69L990 85L900 85L900 67L810 67L810 65L720 65L720 81L630 81L630 63L540 63L540 81L450 81L450 47L360 47L360 87L270 87L270 85L180 85L180 17L90 17L90 43L0 43Z" fill="#0c1417"></path><path d="M0 73L90 73L90 79L180 79L180 115L270 115L270 117L360 117L360 109L450 109L450 125L540 125L540 101L630 101L630 129L720 129L720 71L810 71L810 129L900 129L900 107L990 107L990 111L1080 111L1080 143L1170 143L1170 125L1260 125L1260 129L1350 129L1350 133L1440 133L1440 123L1530 123L1530 75L1620 75L1620 141L1710 141L1710 99L1800 99L1800 151L1800 143L1800 89L1710 89L1710 123L1620 123L1620 51L1530 51L1530 119L1440 119L1440 111L1350 111L1350 115L1260 115L1260 117L1170 117L1170 135L1080 135L1080 105L990 105L990 101L900 101L900 117L810 117L810 67L720 67L720 105L630 105L630 91L540 91L540 121L450 121L450 89L360 89L360 111L270 111L270 91L180 91L180 49L90 49L90 47L0 47Z" fill="#0b1315"></path><path d="M0 93L90 93L90 81L180 81L180 129L270 129L270 129L360 129L360 119L450 119L450 127L540 127L540 117L630 117L630 143L720 143L720 71L810 71L810 139L900 139L900 113L990 113L990 113L1080 113L1080 155L1170 155L1170 129L1260 129L1260 135L1350 135L1350 135L1440 135L1440 131L1530 131L1530 75L1620 75L1620 145L1710 145L1710 115L1800 115L1800 167L1800 149L1800 97L1710 97L1710 139L1620 139L1620 73L1530 73L1530 121L1440 121L1440 131L1350 131L1350 127L1260 127L1260 123L1170 123L1170 141L1080 141L1080 109L990 109L990 105L900 105L900 127L810 127L810 69L720 69L720 127L630 127L630 99L540 99L540 123L450 123L450 107L360 107L360 115L270 115L270 113L180 113L180 77L90 77L90 71L0 71Z" fill="#0a1113"></path><path d="M0 129L90 129L90 109L180 109L180 159L270 159L270 155L360 155L360 161L450 161L450 149L540 149L540 143L630 143L630 181L720 181L720 87L810 87L810 147L900 147L900 115L990 115L990 153L1080 153L1080 157L1170 157L1170 145L1260 145L1260 141L1350 141L1350 145L1440 145L1440 133L1530 133L1530 81L1620 81L1620 167L1710 167L1710 133L1800 133L1800 177L1800 165L1800 113L1710 113L1710 143L1620 143L1620 73L1530 73L1530 129L1440 129L1440 133L1350 133L1350 133L1260 133L1260 127L1170 127L1170 153L1080 153L1080 111L990 111L990 111L900 111L900 137L810 137L810 69L720 69L720 141L630 141L630 115L540 115L540 125L450 125L450 117L360 117L360 127L270 127L270 127L180 127L180 79L90 79L90 91L0 91Z" fill="#091011"></path><path d="M0 175L90 175L90 199L180 199L180 195L270 195L270 167L360 167L360 191L450 191L450 195L540 195L540 183L630 183L630 201L720 201L720 173L810 173L810 173L900 173L900 171L990 171L990 181L1080 181L1080 177L1170 177L1170 175L1260 175L1260 195L1350 195L1350 177L1440 177L1440 173L1530 173L1530 181L1620 181L1620 183L1710 183L1710 177L1800 177L1800 201L1800 175L1800 131L1710 131L1710 165L1620 165L1620 79L1530 79L1530 131L1440 131L1440 143L1350 143L1350 139L1260 139L1260 143L1170 143L1170 155L1080 155L1080 151L990 151L990 113L900 113L900 145L810 145L810 85L720 85L720 179L630 179L630 141L540 141L540 147L450 147L450 159L360 159L360 153L270 153L270 157L180 157L180 107L90 107L90 127L0 127Z" fill="#080e0f"></path><path d="M0 201L90 201L90 201L180 201L180 201L270 201L270 201L360 201L360 201L450 201L450 201L540 201L540 201L630 201L630 201L720 201L720 201L810 201L810 201L900 201L900 201L990 201L990 201L1080 201L1080 201L1170 201L1170 201L1260 201L1260 201L1350 201L1350 201L1440 201L1440 201L1530 201L1530 201L1620 201L1620 201L1710 201L1710 201L1800 201L1800 201L1800 199L1800 175L1710 175L1710 181L1620 181L1620 179L1530 179L1530 171L1440 171L1440 175L1350 175L1350 193L1260 193L1260 173L1170 173L1170 175L1080 175L1080 179L990 179L990 169L900 169L900 171L810 171L810 171L720 171L720 199L630 199L630 181L540 181L540 193L450 193L450 189L360 189L360 165L270 165L270 193L180 193L180 197L90 197L90 173L0 173Z" fill="#070c0d"></path></svg>